<?xml version="1.0" encoding="UTF-8" standalone="no"?>
<!DOCTYPE svg PUBLIC "-//W3C//DTD SVG 1.1//EN" "http://www.w3.org/Graphics/SVG/1.1/DTD/svg11.dtd">
<svg width="100%" height="100%" viewBox="0 0 128 128" version="1.1" xmlns="http://www.w3.org/2000/svg" xmlns:xlink="http://www.w3.org/1999/xlink" xml:space="preserve" xmlns:serif="http://www.serif.com/" style="fill-rule:evenodd;clip-rule:evenodd;stroke-linejoin:round;stroke-miterlimit:2;">
    <g transform="matrix(0.898835,0,0,0.898835,7.226532,6.57106)">
        <path d="M30.456,64.581C30.268,63.954 29.504,61.431 28.856,59.681C26.843,54.245 24.207,47.625 23.162,42.535C22.236,38.026 20.258,28.562 21.319,19.736C22.717,8.101 28.558,-2.482 44.099,-5.129C52.414,-6.545 57.716,-3.135 61.156,3.326C62.92,6.639 64.031,11.312 64.614,16.578C64.798,18.246 64.936,19.991 65.063,21.757C65.646,17.952 66.473,14.297 67.812,11.013L67.813,11.008C73.04,-1.798 82.337,-5.126 90.258,-3.94C96.568,-2.996 113.759,6.488 109.809,35.692L109.808,35.701C108.626,44.382 105.038,50.854 101.773,56.649C100.136,59.552 98.156,61.947 98.55,65.07C99.524,72.753 104.463,78.507 106.401,82.547L106.44,82.629C108.564,83.037 109.926,83.486 110.033,83.522L110.272,83.605L113.304,85.272L115.631,87.71L117.13,90.728L117.664,94.147L116.768,98.536L116.421,99.05L117.2,101.663L116.801,105.92L114.742,109.838L114.665,109.931L114.46,110.127L114.034,113.572L111.902,117.371L110.111,119.079L107.953,120.355L105.662,121.099L103.36,121.337L100.338,120.799C89.599,130.724 72.637,133.373 64.17,133.164C55.369,132.947 41.109,131.873 29.025,122.55L28.863,122.636L24.67,123.447L20.444,122.619L16.764,120.178L14.316,116.55L13.663,113.291L13.22,113.018L11.392,111.19L9.361,107.234L9.018,102.928L10.317,98.831L10.325,98.821L9.11,96.506L8.737,92.08L10.037,87.994L12.769,84.697L16.668,82.623L16.903,82.555C16.984,82.533 18.142,82.178 20.371,81.842C22.646,77.265 25.4,73.278 26.777,70.751C27.728,69.006 28.753,67.447 29.641,65.931C29.92,65.454 30.358,65.085 30.456,64.581ZM26.402,94.025C26.299,94.7 26.233,95.375 26.21,96.05C26.17,97.221 26.195,98.336 26.282,99.399C22.322,100.594 19.361,102.927 19.23,103.03C18.58,103.55 18.47,104.49 18.99,105.14C19.29,105.52 19.73,105.71 20.17,105.71C20.49,105.71 20.82,105.6 21.09,105.37C21.117,105.343 23.514,103.457 26.716,102.397C27.07,104.066 27.596,105.59 28.273,106.99L28.26,107C26.19,108.59 23.71,111.07 23.61,111.17C23.327,111.45 23.167,111.832 23.167,112.23C23.167,112.628 23.327,113.01 23.61,113.29C23.9,113.58 24.29,113.73 24.67,113.73C25.05,113.73 25.44,113.59 25.72,113.29C25.749,113.261 27.941,111.078 29.799,109.6C30.854,111.116 32.11,112.467 33.53,113.69C43.89,122.6 56.71,123.26 64.41,123.45C72.11,123.64 88.9,121.38 96.7,110.31C97.208,109.589 97.662,108.879 98.066,108.182C100.281,109.443 102.354,111.233 102.38,111.25C102.66,111.5 103.01,111.62 103.36,111.62C103.78,111.62 104.2,111.45 104.5,111.09C105.04,110.46 104.98,109.51 104.35,108.97C104.244,108.882 101.959,106.909 99.42,105.49C99.958,104.223 100.336,103.002 100.584,101.828C103.593,102.743 105.081,103.911 105.09,103.92C105.37,104.15 105.71,104.26 106.04,104.26C106.47,104.26 106.9,104.07 107.2,103.71C107.72,103.07 107.63,102.13 106.99,101.6C106.907,101.526 104.925,99.925 100.958,98.812C101.012,97.35 100.878,95.976 100.628,94.692C103.686,94.854 106.025,95.582 106.05,95.59C106.18,95.626 106.315,95.644 106.45,95.644C107.271,95.644 107.947,94.969 107.947,94.147C107.947,93.519 107.551,92.954 106.96,92.74C106.822,92.694 103.726,91.715 99.797,91.668C99.127,89.755 98.293,88.11 97.64,86.75C95.39,82.06 90.04,75.21 88.91,66.29C87.59,55.85 98.2,48.93 100.18,34.39C102.94,13.98 93.23,6.33 88.82,5.67C84.41,5.01 79.72,7.55 76.81,14.68C73.9,21.82 73.89,30.93 72.96,39.18C72.03,47.43 67.99,53.16 67.99,53.16C67.99,53.16 66.21,52.69 64.42,52.69C62.63,52.69 61.32,52.97 61.32,52.97C61.32,52.97 59.07,48.37 56.71,35.52C54.36,22.66 56.89,2.55 45.73,4.45C25.36,7.92 31.08,32.79 32.68,40.58C34.28,48.37 40.1,60.01 40.19,64.14C40.28,68.27 37.56,71.27 35.31,75.4C33.526,78.675 29.026,84.603 27.099,90.991C22.123,91.164 19.568,91.901 19.46,91.93C18.66,92.17 18.21,93 18.44,93.79C18.67,94.58 19.5,95.04 20.3,94.81C20.318,94.81 22.383,94.229 26.402,94.025Z" style="fill:rgb(182,211,231);"/>
        <path d="M65.16,45.452C65.899,43.597 66.619,41.218 66.925,38.5C67.917,29.699 68.082,20.005 71.186,12.388L71.187,12.385C75.544,1.711 83.117,-1.324 89.719,-0.336C95.313,0.501 109.699,9.316 106.198,35.204L106.198,35.209C105.088,43.361 101.665,49.418 98.598,54.859C96.551,58.492 94.441,61.62 94.935,65.528C95.967,73.674 101.061,79.84 103.116,84.123C103.381,84.677 103.672,85.273 103.97,85.91C106.818,86.306 108.759,86.938 108.881,86.978L109.03,87.03L111.077,88.156L112.648,89.802L113.659,91.84L114.02,94.147L113.863,95.678L113.416,97.108L112.323,98.725L112.747,99.248L113.574,102.019L113.304,104.895L111.913,107.54L111.866,107.598L110.693,108.724L110.923,109.582L110.569,112.446L109.126,115.015L107.915,116.171L106.461,117.031L104.916,117.532L103.36,117.693L100.744,117.227L99.51,116.486C89.803,127.121 72.564,129.726 64.26,129.521C55.591,129.307 41.234,128.326 29.57,118.295L29.566,118.291L29.363,118.115L28.891,118.518L27.502,119.256L24.67,119.803L21.817,119.244L19.331,117.595L17.679,115.146L17.094,112.23L17.303,111.186L16.948,111.066L15.477,110.157L14.236,108.916L13.418,107.65L12.869,106.25L12.638,103.344L13.515,100.577L14.915,98.908L14.006,98.15L12.609,95.488L12.357,92.5L13.234,89.741L15.08,87.515L17.715,86.113L17.862,86.071C17.955,86.045 19.604,85.549 22.797,85.206C25.123,79.954 28.449,75.299 29.977,72.495C30.909,70.784 31.915,69.258 32.785,67.772C33.456,66.628 34.147,65.59 34.118,64.272C34.091,63.027 33.203,60.925 32.273,58.416C30.321,53.146 27.744,46.736 26.731,41.802C25.852,37.523 23.93,28.546 24.936,20.17C26.154,10.039 31.178,0.768 44.71,-1.537C48.204,-2.132 50.987,-1.462 53.258,-0.086C56.128,1.653 58.317,4.817 59.575,9.18C61.528,15.956 61.24,26.523 62.684,34.426C63.588,39.348 64.457,42.942 65.16,45.452ZM26.402,94.025C26.299,94.7 26.233,95.375 26.21,96.05C26.17,97.221 26.195,98.336 26.282,99.399C22.322,100.594 19.361,102.927 19.23,103.03C18.58,103.55 18.47,104.49 18.99,105.14C19.29,105.52 19.73,105.71 20.17,105.71C20.49,105.71 20.82,105.6 21.09,105.37C21.117,105.343 23.514,103.457 26.716,102.397C27.07,104.066 27.596,105.59 28.273,106.99L28.26,107C26.19,108.59 23.71,111.07 23.61,111.17C23.327,111.45 23.167,111.832 23.167,112.23C23.167,112.628 23.327,113.01 23.61,113.29C23.9,113.58 24.29,113.73 24.67,113.73C25.05,113.73 25.44,113.59 25.72,113.29C25.749,113.261 27.941,111.078 29.799,109.6C30.854,111.116 32.11,112.467 33.53,113.69C43.89,122.6 56.71,123.26 64.41,123.45C72.11,123.64 88.9,121.38 96.7,110.31C97.208,109.589 97.662,108.879 98.066,108.182C100.281,109.443 102.354,111.233 102.38,111.25C102.66,111.5 103.01,111.62 103.36,111.62C103.78,111.62 104.2,111.45 104.5,111.09C105.04,110.46 104.98,109.51 104.35,108.97C104.244,108.882 101.959,106.909 99.42,105.49C99.958,104.223 100.336,103.002 100.584,101.828C103.593,102.743 105.081,103.911 105.09,103.92C105.37,104.15 105.71,104.26 106.04,104.26C106.47,104.26 106.9,104.07 107.2,103.71C107.72,103.07 107.63,102.13 106.99,101.6C106.907,101.526 104.925,99.925 100.958,98.812C101.012,97.35 100.878,95.976 100.628,94.692C103.686,94.854 106.025,95.582 106.05,95.59C106.18,95.626 106.315,95.644 106.45,95.644C107.271,95.644 107.947,94.969 107.947,94.147C107.947,93.519 107.551,92.954 106.96,92.74C106.822,92.694 103.726,91.715 99.797,91.668C99.127,89.755 98.293,88.11 97.64,86.75C95.39,82.06 90.04,75.21 88.91,66.29C87.59,55.85 98.2,48.93 100.18,34.39C102.94,13.98 93.23,6.33 88.82,5.67C84.41,5.01 79.72,7.55 76.81,14.68C73.9,21.82 73.89,30.93 72.96,39.18C72.03,47.43 67.99,53.16 67.99,53.16C67.99,53.16 66.21,52.69 64.42,52.69C62.63,52.69 61.32,52.97 61.32,52.97C61.32,52.97 59.07,48.37 56.71,35.52C54.36,22.66 56.89,2.55 45.73,4.45C25.36,7.92 31.08,32.79 32.68,40.58C34.28,48.37 40.1,60.01 40.19,64.14C40.28,68.27 37.56,71.27 35.31,75.4C33.526,78.675 29.026,84.603 27.099,90.991C22.123,91.164 19.568,91.901 19.46,91.93C18.66,92.17 18.21,93 18.44,93.79C18.67,94.58 19.5,95.04 20.3,94.81C20.318,94.81 22.383,94.229 26.402,94.025Z" style="fill:rgb(21,50,69);"/>
        <path d="M26.402,94.025C22.383,94.229 20.318,94.81 20.3,94.81C19.5,95.04 18.67,94.58 18.44,93.79C18.21,93 18.66,92.17 19.46,91.93C19.568,91.901 22.123,91.164 27.099,90.991C29.026,84.603 33.526,78.675 35.31,75.4C37.56,71.27 40.28,68.27 40.19,64.14C40.1,60.01 34.28,48.37 32.68,40.58C31.08,32.79 25.36,7.92 45.73,4.45C56.89,2.55 54.36,22.66 56.71,35.52C59.07,48.37 61.32,52.97 61.32,52.97C61.32,52.97 62.63,52.69 64.42,52.69C66.21,52.69 67.99,53.16 67.99,53.16C67.99,53.16 72.03,47.43 72.96,39.18C73.89,30.93 73.9,21.82 76.81,14.68C79.72,7.55 84.41,5.01 88.82,5.67C93.23,6.33 102.94,13.98 100.18,34.39C98.2,48.93 87.59,55.85 88.91,66.29C90.04,75.21 95.39,82.06 97.64,86.75C98.293,88.11 99.127,89.755 99.797,91.668C103.726,91.715 106.822,92.694 106.96,92.74C107.551,92.954 107.947,93.519 107.947,94.147C107.947,94.969 107.271,95.644 106.45,95.644C106.315,95.644 106.18,95.626 106.05,95.59C106.025,95.582 103.686,94.854 100.628,94.692C100.878,95.976 101.012,97.35 100.958,98.812C104.925,99.925 106.907,101.526 106.99,101.6C107.63,102.13 107.72,103.07 107.2,103.71C106.9,104.07 106.47,104.26 106.04,104.26C105.71,104.26 105.37,104.15 105.09,103.92C105.081,103.911 103.593,102.743 100.584,101.828C100.336,103.002 99.958,104.223 99.42,105.49C101.959,106.909 104.244,108.882 104.35,108.97C104.98,109.51 105.04,110.46 104.5,111.09C104.2,111.45 103.78,111.62 103.36,111.62C103.01,111.62 102.66,111.5 102.38,111.25C102.354,111.233 100.281,109.443 98.066,108.182C97.662,108.879 97.208,109.589 96.7,110.31C88.9,121.38 72.11,123.64 64.41,123.45C56.71,123.26 43.89,122.6 33.53,113.69C32.11,112.467 30.854,111.116 29.799,109.6C27.941,111.078 25.749,113.261 25.72,113.29C25.44,113.59 25.05,113.73 24.67,113.73C24.29,113.73 23.9,113.58 23.61,113.29C23.327,113.01 23.167,112.628 23.167,112.23C23.167,111.832 23.327,111.45 23.61,111.17C23.71,111.07 26.19,108.59 28.26,107C28.264,106.997 28.268,106.994 28.273,106.99C27.596,105.59 27.07,104.066 26.716,102.397C23.514,103.457 21.117,105.343 21.09,105.37C20.82,105.6 20.49,105.71 20.17,105.71C19.73,105.71 19.29,105.52 18.99,105.14C18.47,104.49 18.58,103.55 19.23,103.03C19.361,102.927 22.322,100.594 26.282,99.399C26.195,98.336 26.17,97.221 26.21,96.05C26.233,95.375 26.299,94.7 26.402,94.025Z" style="fill:rgb(181,194,200);"/>
    </g>
    <g transform="matrix(0.898835,0,0,0.898835,7.226532,6.57106)">
        <path d="M61.32,52.97C61.32,52.97 62.63,52.69 64.42,52.69C66.21,52.69 67.99,53.16 67.99,53.16C67.99,53.16 72.03,47.43 72.96,39.18C73.89,30.93 73.9,21.82 76.81,14.68C79.72,7.55 84.41,5.01 88.82,5.67C93.23,6.33 102.94,13.98 100.18,34.39C98.2,48.93 87.59,55.85 88.91,66.29C90.04,75.21 95.39,82.06 97.64,86.75C99.89,91.44 104.3,99.51 96.7,110.31C88.9,121.38 72.11,123.64 64.41,123.45C56.71,123.26 43.89,122.6 33.53,113.69C28.84,109.65 25.93,104.21 26.21,96.05C26.49,87.88 33.06,79.53 35.31,75.4C37.56,71.27 40.28,68.27 40.19,64.14C40.1,60.01 34.28,48.37 32.68,40.58C31.08,32.79 25.36,7.92 45.73,4.45C56.89,2.55 54.36,22.66 56.71,35.52C59.07,48.37 61.32,52.97 61.32,52.97" style="fill:rgb(181,194,200);fill-rule:nonzero;"/>
        <path d="M78.68,54.47C83.1,57.39 86.07,50.77 87.13,48.09C88.73,44.05 92.29,36.83 92.48,28.1C92.63,20.96 92.2,14.87 87.04,15.05C81.88,15.24 82.07,23.59 82.16,26.41C82.3,30.73 81.21,36.96 80.1,41.33C78.48,47.68 74.27,51.56 78.68,54.47M44.99,14.11C40.49,13.55 37.86,20.21 38.42,27.06C38.98,33.91 41.24,44.42 43.77,49.21C46.3,54 47.62,55.12 50.72,54.28C53.82,53.44 51.66,47.9 51.38,46.02C51.1,44.14 48.75,32.04 48.75,26.5C48.75,20.96 49.56,14.68 44.99,14.11" style="fill:rgb(254,172,169);fill-rule:nonzero;"/>
        <path d="M64.98,60.19C69.49,60.19 67.3,69.04 68.43,73.92C69.56,78.8 73.78,83.12 77.09,86.59C81.24,90.95 86.19,100.22 85.26,105.95C84.32,111.68 81.39,120.17 64.52,119.98C49.93,119.82 43.59,115.38 43.31,104.89C43.05,95.09 49.72,88.21 52.11,86.24C54.5,84.27 57.95,80.82 59.5,76.81C61.05,72.8 61.47,68.72 61.61,66.53C61.74,64.35 61.25,60.19 64.98,60.19" style="fill:white;fill-rule:nonzero;"/>
        <path d="M52.45,75.68C52.45,79.43 51.68,82.44 48.09,82.44C45.49,82.44 44.22,79.75 44.22,76C44.22,72.25 45.56,69.42 48.37,69.63C51.21,69.84 52.45,71.93 52.45,75.68M84.05,76.45C84.05,80.2 83.42,83 79.83,83C77.23,83 76.03,79.85 76.03,76.1C76.03,72.35 76.8,70.19 79.62,70.19C82.37,70.19 84.05,72.7 84.05,76.45" style="fill:rgb(47,47,45);fill-rule:nonzero;"/>
        <path d="M64.93,107.19L59.96,109.35C59.96,109.35 59.98,112.71 62.24,112.68C63.94,112.65 64.51,111.62 64.51,111.62C64.51,111.62 65.36,112.71 67.27,112.68C69.53,112.64 69.32,109.81 69.32,109.81L64.93,107.19Z" style="fill:rgb(255,215,146);fill-rule:nonzero;"/>
        <path d="M69.25,102.47L59.35,103.64C59.35,103.64 59.82,109.37 60.03,109.86C60.24,110.35 60.59,110.99 62.14,111.13C63.69,111.27 64.53,110.07 64.53,110.07C64.53,110.07 65.1,111.18 66.75,111.32C67.77,111.41 69.18,111.02 69.35,110.3C69.64,109.1 69.54,108.04 69.53,106.27C69.52,104.71 69.25,102.47 69.25,102.47" style="fill:rgb(254,226,179);fill-rule:nonzero;"/>
        <path d="M64.32,92.85C64.32,92.85 68.99,86.99 70.61,89C72.51,91.36 65.73,96.13 65.73,96.13C65.73,96.13 65.97,99.83 66.28,100.1C69.03,102.46 71.35,99.78 71.63,99.5C71.91,99.22 73.53,97.99 74.59,99.32C75.65,100.65 73.57,105.27 69.45,105.55C65.33,105.83 64.45,103.51 64.45,103.51C64.45,103.51 63.82,106.15 59.1,105.94C54.38,105.73 53.79,100.59 54.84,99.82C55.9,99.05 56.26,99.11 58.43,100.95C59.8,102.11 62.3,101.13 62.44,99.86C62.51,99.26 62.4,96.09 62.4,96.09C62.4,96.09 54.8,91.44 56.87,88.98C58.96,86.52 64.32,92.85 64.32,92.85" style="fill:rgb(44,44,44);fill-rule:nonzero;"/>
        <path d="M36.35,95.53C36.16,95.53 35.97,95.49 35.78,95.42C35.74,95.41 31.91,93.86 27.53,93.98C22.77,94.12 20.32,94.81 20.3,94.81C19.5,95.04 18.67,94.58 18.44,93.79C18.21,93 18.66,92.17 19.46,91.93C19.57,91.9 22.24,91.13 27.44,90.98C32.49,90.82 36.75,92.57 36.93,92.64C37.7,92.96 38.06,93.83 37.74,94.6C37.5,95.18 36.94,95.53 36.35,95.53M20.17,105.71C19.73,105.71 19.29,105.52 18.99,105.14C18.47,104.49 18.58,103.55 19.23,103.03C19.37,102.92 22.72,100.28 27.07,99.18C31.34,98.1 36.21,98.42 36.41,98.43C37.24,98.49 37.86,99.2 37.8,100.03C37.74,100.86 37.04,101.5 36.2,101.42C36.16,101.42 31.59,101.12 27.8,102.08C24.07,103.02 21.12,105.34 21.09,105.37C20.82,105.6 20.49,105.71 20.17,105.71M24.67,113.73C24.29,113.73 23.9,113.58 23.61,113.29C23.327,113.01 23.167,112.628 23.167,112.23C23.167,111.832 23.327,111.45 23.61,111.17C23.71,111.07 26.19,108.59 28.26,107C30.43,105.33 34.98,103.62 35.17,103.55C35.95,103.26 36.81,103.65 37.1,104.43C37.39,105.21 37,106.07 36.22,106.36C35.02,106.81 31.59,108.23 30.08,109.38C28.17,110.85 25.75,113.26 25.72,113.29C25.44,113.59 25.05,113.73 24.67,113.73M90.65,95.95C89.99,95.95 89.38,95.51 89.2,94.84C88.98,94.04 89.45,93.22 90.25,93C90.43,92.95 94.64,91.82 98.71,91.68C103.14,91.53 106.81,92.69 106.96,92.74C107.551,92.954 107.947,93.519 107.947,94.147C107.947,94.969 107.271,95.644 106.45,95.644C106.315,95.644 106.18,95.626 106.05,95.59C106.02,95.58 102.71,94.55 98.81,94.67C95.1,94.79 91.07,95.88 91.03,95.89C90.91,95.93 90.78,95.95 90.65,95.95M106.04,104.26C105.71,104.26 105.37,104.15 105.09,103.92C105.08,103.91 103.13,102.38 99.18,101.45C95.36,100.55 91.57,100.87 91.53,100.87C90.72,100.94 89.98,100.33 89.91,99.51C89.84,98.68 90.45,97.96 91.27,97.89C91.44,97.87 95.58,97.53 99.86,98.53C104.56,99.63 106.9,101.52 106.99,101.6C107.63,102.13 107.72,103.07 107.2,103.71C106.9,104.07 106.47,104.26 106.04,104.26M103.36,111.62C103.01,111.62 102.66,111.5 102.38,111.25C102.35,111.23 99.63,108.88 97.09,107.67C94.66,106.52 91.13,106.45 91.1,106.45C90.281,106.445 89.61,105.769 89.61,104.95C89.61,104.127 90.287,103.45 91.11,103.45C91.113,103.45 91.14,103.45 91.14,103.45C91.31,103.45 95.35,103.52 98.38,104.95C101.3,106.34 104.23,108.87 104.35,108.97C104.98,109.51 105.04,110.46 104.5,111.09C104.2,111.45 103.78,111.62 103.36,111.62" style="fill:rgb(131,133,132);fill-rule:nonzero;"/>
    </g>
</svg>
